<svg width="23" height="23" viewBox="0 0 23 23" fill="none" xmlns="http://www.w3.org/2000/svg">
<g id="Icon" clip-path="url(#clip0_1_2966)">
<path id="Vector" d="M17.5231 8.63833C17.5939 8.5723 17.679 8.52353 17.7718 8.49584C17.8646 8.46815 17.9625 8.46228 18.0579 8.4787C18.1533 8.49512 18.2436 8.53338 18.3218 8.59049C18.4 8.6476 18.4639 8.72201 18.5085 8.80791C18.5935 8.95827 18.6261 9.1326 18.6012 9.3035C18.5763 9.4744 18.4954 9.63219 18.371 9.75208L12.376 15.1787C12.2603 15.2847 12.109 15.3435 11.9521 15.3435C11.7951 15.3435 11.6439 15.2847 11.5281 15.1787L5.56979 9.75208C5.44689 9.63122 5.36727 9.47322 5.34324 9.30253C5.31921 9.13185 5.35212 8.958 5.43687 8.80791C5.48153 8.72201 5.54544 8.6476 5.62361 8.59049C5.70179 8.53338 5.79211 8.49512 5.88752 8.4787C5.98293 8.46228 6.08084 8.46815 6.17361 8.49584C6.26638 8.52353 6.35149 8.5723 6.42229 8.63833L11.9727 13.68L17.5231 8.63833ZM11.849 14.6196C11.8793 14.5965 11.9163 14.5841 11.9544 14.5841C11.9924 14.5841 12.0295 14.5965 12.0598 14.6196L11.9544 14.5233L11.849 14.6196Z" fill="#C0C0C0"/>
</g>
<defs>
<clipPath id="clip0_1_2966">
<rect width="22" height="22" fill="white" transform="translate(0.734375 0.21875)"/>
</clipPath>
</defs>
</svg>
