<svg width="19" height="19" viewBox="0 0 19 19" fill="none" xmlns="http://www.w3.org/2000/svg">
<path d="M9.30238 2.55303C11.0221 2.55544 12.6796 3.19649 13.9534 4.35181C15.2272 5.50714 16.0265 7.0944 16.1962 8.8057C16.366 10.517 15.8941 12.2303 14.8721 13.6134C13.85 14.9965 12.3508 15.9506 10.6651 16.2908C8.97935 16.631 7.22737 16.333 5.74895 15.4546C4.27054 14.5761 3.17108 13.1799 2.66384 11.5367C2.15661 9.89354 2.27775 8.12052 3.00378 6.5616C3.72981 5.00268 5.00896 3.76897 6.59312 3.0998C7.45023 2.73713 8.3717 2.55117 9.30238 2.55303ZM9.30238 1.71692C4.99513 1.71692 1.50525 5.20807 1.50525 9.5143C1.50525 13.8205 4.99615 17.3114 9.30238 17.3114C13.6086 17.3114 17.101 13.8205 17.101 9.5143C17.101 5.20807 13.6089 1.71692 9.30238 1.71692Z" fill="#C0C0C0"/>
<path d="M9.96872 2.18234C9.96872 2.18234 12.7051 3.67721 12.7051 9.70735C12.7051 15.2814 9.76602 16.8777 9.76602 16.8777" stroke="#C0C0C0" stroke-width="0.836112" stroke-miterlimit="10"/>
<path d="M8.76295 2.18234C8.76295 2.18234 5.82617 3.67721 5.82617 9.70735C5.82617 15.2814 8.9806 16.8777 8.9806 16.8777" stroke="#C0C0C0" stroke-width="0.836112" stroke-miterlimit="10"/>
<path d="M3.03912 5.56479C3.03912 5.56479 5.8515 6.17287 9.2973 6.17287C12.6924 6.17287 15.3528 5.56479 15.3528 5.56479" stroke="#C0C0C0" stroke-width="0.836112" stroke-miterlimit="10"/>
<path d="M15.3528 13.4192C15.3528 13.4192 12.5404 12.8111 9.0946 12.8111C5.69948 12.8111 3.03912 13.4192 3.03912 13.4192" stroke="#C0C0C0" stroke-width="0.836112" stroke-miterlimit="10"/>
<path d="M2.00034 9.51733H16.5943" stroke="#C0C0C0" stroke-width="0.836112" stroke-miterlimit="10"/>
</svg>
